<svg version="1.1" xmlns="http://www.w3.org/2000/svg" viewBox="0 0 173 159" width="173" height="159">
  <!-- svg-source:excalidraw -->
  
  <defs>
    <style class="style-fonts">
      @font-face {
        font-family: "Virgil";
        src: url("https://excalidraw.com/Virgil.woff2");
      }
      @font-face {
        font-family: "Cascadia";
        src: url("https://excalidraw.com/Cascadia.woff2");
      }
    </style>
  </defs>
  <rect x="0" y="0" width="173" height="159" fill="#ffffff"></rect>
  <g stroke-linecap="round" transform="translate(50 50) rotate(0 76.5 69.5)">
    <path d="M32 0 M32 0 C62.44 -1.33, 92.2 0.29, 121 0 M32 0 C53.76 -1.25, 76.97 -0.71, 121 0 M121 0 C141.42 0.9, 151.48 11.77, 153 32 M121 0 C142.26 2.24, 154.92 12.79, 153 32 M153 32 C152.3 52.75, 150.52 77.96, 153 107 M153 32 C153.64 49, 152.44 67.44, 153 107 M153 107 C153.52 129.75, 142.26 138.39, 121 139 M153 107 C153.98 130.01, 142.49 138.73, 121 139 M121 139 C87.89 139.05, 53.11 139.95, 32 139 M121 139 C87.4 137.36, 53.17 138.24, 32 139 M32 139 C8.93 139.79, 0.95 129.67, 0 107 M32 139 C10.59 140.07, 1.81 130.09, 0 107 M0 107 C1.54 77.23, -0.65 49.59, 0 32 M0 107 C-0.29 88.69, 0.93 71.02, 0 32 M0 32 C1.78 9.28, 9.4 -1.53, 32 0 M0 32 C0.38 8.94, 10 0.61, 32 0" stroke="#1e1e1e" stroke-width="1" fill="none"></path>
  </g>
  <g transform="translate(56 79.70144679184667) rotate(0 29.133333206176758 26.79889278765333)">
    <text x="0" y="0" font-family="Virgil, Segoe UI Emoji" font-size="42.878228460245325px" fill="#1e1e1e" text-anchor="middle" style="white-space: pre;" direction="ltr" dominant-baseline="middle">TH</text>
  </g>
</svg>
